<?xml version="1.0" encoding="utf-8"?>
<!-- Generator: Adobe Illustrator 18.0.0, SVG Export Plug-In . SVG Version: 6.00 Build 0)  -->
<!DOCTYPE svg PUBLIC "-//W3C//DTD SVG 1.1//EN" "http://www.w3.org/Graphics/SVG/1.1/DTD/svg11.dtd">
<svg version="1.1" xmlns="http://www.w3.org/2000/svg" xmlns:xlink="http://www.w3.org/1999/xlink" x="0px" y="0px"
	 viewBox="0 0 112.6 100.6" enable-background="new 0 0 112.6 100.6" xml:space="preserve">
<g id="Layer_1" display="none">
	<g display="inline">
		
			<polyline fill="none" stroke="#010101" stroke-width="2.0786" stroke-linecap="round" stroke-linejoin="round" stroke-miterlimit="10" points="
			30.1,32.2 30.1,68.6 84.6,68.6 84.6,32.2 57.4,59.5 34.6,36.8 34.6,32.2 79.8,32.2 		"/>
		
			<line fill="none" stroke="#010101" stroke-width="2.0786" stroke-linecap="round" stroke-linejoin="round" stroke-miterlimit="10" x1="34.6" y1="45.9" x2="34.6" y2="64"/>
		
			<line fill="none" stroke="#010101" stroke-width="2.0786" stroke-linecap="round" stroke-linejoin="round" stroke-miterlimit="10" x1="39.2" y1="64" x2="39.2" y2="59.5"/>
		
			<line fill="none" stroke="#010101" stroke-width="2.0786" stroke-linecap="round" stroke-linejoin="round" stroke-miterlimit="10" x1="75.1" y1="36.8" x2="70.6" y2="41.3"/>
	</g>
</g>
<g id="Layer_2" display="none">
	<g display="inline">
		
			<polyline fill="none" stroke="#010101" stroke-width="2.0786" stroke-linecap="round" stroke-linejoin="round" stroke-miterlimit="10" points="
			33.5,34.5 33.5,70.9 69.9,70.9 69.9,34.5 33.5,34.5 		"/>
		
			<polyline fill="none" stroke="#010101" stroke-width="2.0786" stroke-linecap="round" stroke-linejoin="round" stroke-miterlimit="10" points="
			33.5,34.5 42.6,25.4 79,25.4 79,61.8 74.9,66.1 		"/>
		
			<line fill="none" stroke="#010101" stroke-width="2.0786" stroke-linecap="round" stroke-linejoin="round" stroke-miterlimit="10" x1="60.4" y1="25.9" x2="52" y2="34.3"/>
		
			<line fill="none" stroke="#010101" stroke-width="2.0786" stroke-linecap="round" stroke-linejoin="round" stroke-miterlimit="10" x1="78.1" y1="26.3" x2="69.9" y2="34.5"/>
		
			<polyline fill="none" stroke="#010101" stroke-width="2.0786" stroke-linecap="round" stroke-linejoin="round" stroke-miterlimit="10" points="
			47.4,47 47.4,52.8 42.9,52.8 51.8,61.7 60.6,52.9 56.5,52.9 56.5,42.7 47.4,42.7 		"/>
	</g>
</g>
<g id="Layer_3" display="none">
	<g display="inline">
		
			<path fill="none" stroke="#010101" stroke-width="2.4005" stroke-linecap="round" stroke-linejoin="round" stroke-miterlimit="10" d="
			M23.4,65.1l0-36.5l18.5,0c0,0,7.2-0.3,11.9,3c2.4,1.7,3.9,4.9,4,8.5c0,0,0.6,7.7-4.4,10.2c0,0,5.7,1.6,5,10.1c0,0,0.4,3.9-3.6,7.6
			c-2,1.9-4.9,2.4-9.4,2.4l-22.1,0"/>
		
			<path fill="none" stroke="#010101" stroke-width="2.4005" stroke-linecap="round" stroke-linejoin="round" stroke-miterlimit="10" d="
			M23.4,70.3"/>
		
			<path fill="none" stroke="#010101" stroke-width="2.4005" stroke-linecap="round" stroke-linejoin="round" stroke-miterlimit="10" d="
			M33.9,40.3l0,4.8l10,0c0,0,3.9,0.6,4.3-3.7c0,0,0.7-4.8-4-4.8l-10.3,0"/>
		
			<path fill="none" stroke="#010101" stroke-width="2.4005" stroke-linecap="round" stroke-linejoin="round" stroke-miterlimit="10" d="
			M33.9,56.1l0,8.1l10,0c0,0,4.3-0.6,4.3-5.8c0,0,0.2-5.8-4-5.8l-10.3,0"/>
		
			<path fill="none" stroke="#010101" stroke-width="2.4005" stroke-linecap="round" stroke-linejoin="round" stroke-miterlimit="10" d="
			M69.7,68.2c2,1.2,4.6,2.1,8.1,2.1c0,0,5.1,0.4,9.5-2.7c3.3-2.3,3.3-3.3,4-5.7l-8.9,0c0,0-0.8,2.7-4.6,2.7c0,0-6,0.2-6.4-6.2
			l20.5,0c0,0,2.9-17.6-14.1-17.6c0,0-14.3,0-14.4,16.8c0,0,0.2,3.8,2.7,7.3"/>
		
			<path fill="none" stroke="#010101" stroke-width="2.4005" stroke-linecap="round" stroke-linejoin="round" stroke-miterlimit="10" d="
			M74.8,52.6l10.5,0c0,0-0.1-5.8-7.4-6c0,0-6.2,0.6-6.5,6"/>
		
			<rect x="70" y="28.5" fill="none" stroke="#010101" stroke-width="2.4005" stroke-linecap="round" stroke-linejoin="round" stroke-miterlimit="10" width="15.7" height="5.3"/>
	</g>
</g>
<g id="Layer_4" display="none">
	<g display="inline">
		
			<path fill="none" stroke="#010101" stroke-width="2.4005" stroke-linecap="round" stroke-linejoin="round" stroke-miterlimit="10" d="
			M77.3,45v20.5c0,3.2-2.6,5.8-5.8,5.8H41c-3.2,0-5.8-2.6-5.8-5.8V35.1c0-3.2,2.6-5.8,5.8-5.8h30.5c3.2,0,5.8,2.6,5.8,5.8v4.8"/>
		
			<line fill="none" stroke="#010101" stroke-width="2.4005" stroke-linecap="round" stroke-linejoin="round" stroke-miterlimit="10" x1="35.3" y1="39.9" x2="45.7" y2="39.9"/>
		
			<path fill="none" stroke="#010101" stroke-width="2.4005" stroke-linecap="round" stroke-linejoin="round" stroke-miterlimit="10" d="
			M48.7,42.7c2-2.1,4.8-3.5,7.9-3.5c6,0,10.8,4.8,10.8,10.8c0,6-4.8,10.8-10.8,10.8S45.8,56,45.8,50"/>
		
			<line fill="none" stroke="#010101" stroke-width="2.4005" stroke-linecap="round" stroke-linejoin="round" stroke-miterlimit="10" x1="66.9" y1="39.9" x2="77.3" y2="39.9"/>
		
			<line fill="none" stroke="#010101" stroke-width="2.4005" stroke-linecap="round" stroke-linejoin="round" stroke-miterlimit="10" x1="66.8" y1="34.6" x2="66.8" y2="29.3"/>
		
			<line fill="none" stroke="#010101" stroke-width="2.4005" stroke-linecap="round" stroke-linejoin="round" stroke-miterlimit="10" x1="72" y1="34.6" x2="72" y2="29.3"/>
	</g>
</g>
<g id="Layer_5" display="none">
	
		<path display="inline" fill="none" stroke="#010101" stroke-width="2.4005" stroke-linecap="round" stroke-linejoin="round" stroke-miterlimit="10" d="
		M49.1,71.1c0,0,4,8.4,10.9,0.7c0,0,16.3-21.5,20.4-29.6c0,0,6-14.2-7.3-15c0,0-10.3,0.1-11.9,9.7c0,0-0.1,5.7,5.6,3.8
		c0,0-3.8,15.9-9.4,15.5c0,0-6.2,0.6-5.7-19c0,0,1-19.1-12.6-8.9c0,0-7.9,6.7-10.4,12.6c0,0-2.8,9.6,10.4,1.7l8.4,24.1"/>
</g>
<g id="Layer_6">
	<g>
		<rect x="-184.6" y="40.6" fill="#FED208" width="19.3" height="19.3"/>
		<path fill="#FED208" d="M288.6,57.8c-1.2,1.2-3.2,1.2-4.5,0c-0.6-0.6-0.9-1.4-0.9-2.2c0-0.8,0.3-1.6,0.9-2.2l3-3l-3-3
			c-0.6-0.6-0.9-1.4-0.9-2.2c0-0.8,0.3-1.6,0.9-2.2c1.2-1.2,3.2-1.2,4.5,0l3,3l3-3c1.2-1.2,3.2-1.2,4.5,0c1.2,1.2,1.2,3.2,0,4.5
			l-3,3l3,3c1.2,1.2,1.2,3.2,0,4.5c-1.2,1.2-3.2,1.2-4.5,0l-3-3L288.6,57.8z"/>
		<path fill="#FED208" d="M47.9,58.3c-1.3-1.3-0.7-3,0-4.7l1.4-3.2l-1.4-3.2c-0.9-1.7-1.3-3.4,0-4.7c1.3-1.3,2.9-0.9,4.7,0l3.2,1.3
			l3.2-1.4c1.8-0.9,3.4-1.3,4.7,0c1.3,1.3,0.9,3,0,4.7l-1.4,3.2l1.4,3.2c0.7,1.7,1.3,3.4,0,4.7c-1.3,1.3-3.1,0.7-4.7,0l-3.2-1.4
			l-3.2,1.4C51.1,59,49.2,59.6,47.9,58.3z"/>
		<circle fill="#FED208" cx="959.3" cy="50.3" r="4.3"/>
		<path fill="#FED208" d="M737.5,54.7C737.5,54.7,737.5,54.7,737.5,54.7c0.6,0.6,1.4,0.9,2.2,0.9c1.7,0,3.1-1.4,3.1-3.1
			c0-0.8-0.3-1.6-0.8-2.1c0,0,0,0-0.1-0.1c0,0,0,0,0.1-0.1c0.5-0.6,0.8-1.3,0.8-2.1c0-1.7-1.4-3.1-3.1-3.1c-0.8,0-1.6,0.3-2.1,0.8
			c0,0,0,0-0.1,0.1c0,0,0,0-0.1-0.1c-0.6-0.5-1.3-0.8-2.1-0.8c-1.7,0-3.1,1.4-3.1,3.1c0,0.8,0.3,1.6,0.8,2.1c0,0,0,0,0.1,0.1
			c0,0,0,0-0.1,0.1c-0.5,0.6-0.8,1.3-0.8,2.1c0,1.7,1.4,3.1,3.1,3.1C736.1,55.6,736.9,55.3,737.5,54.7
			C737.4,54.7,737.5,54.7,737.5,54.7z M737.5,50.3C737.5,50.3,737.5,50.3,737.5,50.3C737.5,50.3,737.5,50.3,737.5,50.3
			C737.5,50.3,737.5,50.3,737.5,50.3C737.5,50.3,737.5,50.3,737.5,50.3z"/>
		<path fill="#FED208" d="M509.2,57.2c-1.7,0-3.1-1.4-3.1-3.1c0-0.9,0.3-1.6,0.9-2.2l0,0l1.5-1.5c0,0,0,0,0-0.1c0,0,0,0,0-0.1
			l-1.2-1.2l0,0c-0.8-0.6-1.3-1.5-1.3-2.5c0-1.7,1.4-3.1,3.1-3.1c1,0,2,0.5,2.5,1.3l0,0l1.2,1.2l0,0c0,0,0.1,0,0.1,0c0,0,0,0,0.1,0
			l1.4-1.4c0.6-0.6,1.4-1,2.3-1c1.7,0,3.1,1.4,3.1,3.1c0,0.9-0.4,1.7-1,2.3l-1.4,1.4c0,0,0,0,0,0.1c0,0,0,0.1,0,0.1l0,0l1.5,1.5
			c0.6,0.6,0.9,1.3,0.9,2.2c0,1.7-1.4,3.1-3.1,3.1c-0.9,0-1.6-0.3-2.2-0.9l-1.5-1.5c0,0,0,0-0.1,0c0,0,0,0-0.1,0l-1.6,1.6
			C510.8,56.8,510.1,57.2,509.2,57.2z"/>
	</g>
</g>
</svg>
