<?xml version="1.0" encoding="utf-8"?>
<!-- Generator: Adobe Illustrator 18.0.0, SVG Export Plug-In . SVG Version: 6.00 Build 0)  -->
<!DOCTYPE svg PUBLIC "-//W3C//DTD SVG 1.1//EN" "http://www.w3.org/Graphics/SVG/1.1/DTD/svg11.dtd">
<svg version="1.1" id="Layer_1" xmlns="http://www.w3.org/2000/svg" xmlns:xlink="http://www.w3.org/1999/xlink" x="0px" y="0px"
	 viewBox="0 0 269.1 99.6" enable-background="new 0 0 269.1 99.6" xml:space="preserve">
<g id="XMLID_26_">
	<rect id="XMLID_31_" x="0" y="0.6" fill="#010101" width="49.2" height="9.5"/>
	<rect id="XMLID_30_" x="0" y="22.6" fill="#010101" width="49.2" height="9.5"/>
	<rect id="XMLID_29_" x="0" y="44.6" fill="#010101" width="49.2" height="10.4"/>
	<rect id="XMLID_28_" x="0" y="67.5" fill="#010101" width="49.2" height="9.5"/>
	<rect id="XMLID_27_" x="0" y="89.5" fill="#010101" width="49.2" height="9.5"/>
</g>
<g id="XMLID_1_">
	<path id="XMLID_23_" fill="#010101" d="M110.3,50.8c-4.1,4.1-8.8,6.3-15.7,6.3c-6.9,0-11.6-2.2-15.7-6.3C73,44.9,73.3,37,73.3,28.6
		c0-8.4-0.2-16.3,5.7-22.2C83.1,2.2,87.8,0,94.6,0c6.9,0,11.6,2.2,15.7,6.3c5.9,5.9,5.7,13.8,5.7,22.2C116,37,116.3,44.9,110.3,50.8
		z M100.2,14.7c-1-1.3-3-2.4-5.5-2.4c-2.5,0-4.5,1.1-5.5,2.4c-1.3,1.7-2.1,3.5-2.1,13.8s0.8,12.1,2.1,13.7c1,1.3,3,2.5,5.5,2.5
		c2.5,0,4.5-1.2,5.5-2.5c1.3-1.7,2-3.5,2-13.7S101.4,16.4,100.2,14.7z"/>
	<path id="XMLID_21_" fill="#010101" d="M145.8,57.1c-6.5,0-11.5-2.2-15.6-6.3c-5.9-5.9-5.7-13.8-5.7-22.2c0-8.4-0.2-16.3,5.7-22.2
		c4.1-4.1,9.1-6.3,15.6-6.3c10.6,0,19.2,5.9,21.3,18.3h-14c-0.9-3.2-2.6-6-7.2-6c-2.5,0-4.4,1-5.4,2.4c-1.3,1.7-2.1,3.6-2.1,13.9
		s0.9,12.2,2.1,13.9c1,1.3,2.9,2.4,5.4,2.4c4.6,0,6.3-2.8,7.2-6h14C165.1,51.2,156.5,57.1,145.8,57.1z"/>
	<path id="XMLID_19_" fill="#010101" d="M204.1,56.6V34.4h-14.7v22.2h-13.8V0.5h13.8v21.6h14.7V0.5h13.8v56.2H204.1z"/>
	<path id="XMLID_16_" fill="#010101" d="M263.5,50.8c-4.1,4.1-8.8,6.3-15.7,6.3c-6.9,0-11.6-2.2-15.7-6.3
		c-5.9-5.9-5.7-13.8-5.7-22.2c0-8.4-0.2-16.3,5.7-22.2c4.1-4.1,8.8-6.3,15.7-6.3c6.9,0,11.6,2.2,15.7,6.3c5.9,5.9,5.7,13.8,5.7,22.2
		C269.1,37,269.4,44.9,263.5,50.8z M253.3,14.7c-1-1.3-3-2.4-5.5-2.4c-2.5,0-4.5,1.1-5.5,2.4c-1.3,1.7-2,3.5-2,13.8s0.8,12.1,2,13.7
		c1,1.3,3,2.5,5.5,2.5c2.5,0,4.5-1.2,5.5-2.5c1.3-1.7,2.1-3.5,2.1-13.7S254.5,16.4,253.3,14.7z"/>
	<path id="XMLID_14_" fill="#010101" d="M84.9,99.6c-5.4,0-9.7-1-13.3-4.6l5.5-5.5c1.8,1.8,5,2.5,7.8,2.5c3.4,0,5-1.1,5-3.1
		c0-0.8-0.2-1.5-0.7-2.1c-0.4-0.4-1.2-0.8-2.3-0.9l-4.2-0.6c-3.1-0.4-5.5-1.5-7-3.1c-1.6-1.7-2.4-4-2.4-7c0-6.4,4.8-11.1,12.8-11.1
		c5,0,8.8,1.2,11.8,4.2l-5.4,5.4c-2.2-2.2-5.1-2.1-6.6-2.1c-3,0-4.2,1.7-4.2,3.2c0,0.4,0.1,1.1,0.7,1.6c0.4,0.4,1.2,0.9,2.4,1
		l4.2,0.6c3.1,0.4,5.4,1.4,6.9,2.9c1.9,1.8,2.6,4.4,2.6,7.7C98.4,95.7,92.3,99.6,84.9,99.6z"/>
	<path id="XMLID_12_" fill="#010101" d="M124.2,71.9v27.4h-8.6V71.9H107v-7.7h25.8v7.7H124.2z"/>
	<path id="XMLID_10_" fill="#010101" d="M156.1,99.6c-7.3,0-13.2-4.9-13.2-12.6V64.2h8.6v22.5c0,3.2,1.8,5.1,4.6,5.1
		c2.9,0,4.7-1.9,4.7-5.1V64.2h8.6V87C169.5,94.6,163.4,99.6,156.1,99.6z"/>
	<path id="XMLID_7_" fill="#010101" d="M205.1,95.8c-2.4,2.4-5.8,3.4-9.4,3.4h-13v-35h13c3.6,0,7,1,9.4,3.4
		c4.1,4.1,3.6,8.6,3.6,14.1C208.8,87.3,209.2,91.7,205.1,95.8z M199.2,73.9c-0.8-1.2-2-2-4.1-2h-3.8v19.7h3.8c2.2,0,3.3-0.8,4.1-2
		c0.7-1,0.9-1.9,0.9-7.9C200.2,75.8,199.9,74.9,199.2,73.9z"/>
	<path id="XMLID_5_" fill="#010101" d="M221.3,99.3v-35h8.6v35H221.3z"/>
	<path id="XMLID_2_" fill="#010101" d="M265.5,95.6c-2.6,2.6-5.5,3.9-9.8,3.9c-4.3,0-7.2-1.4-9.8-3.9c-3.7-3.7-3.5-8.6-3.5-13.9
		c0-5.3-0.1-10.2,3.5-13.9c2.6-2.6,5.5-3.9,9.8-3.9c4.3,0,7.2,1.4,9.8,3.9c3.7,3.7,3.5,8.6,3.5,13.9C269.1,87,269.2,91.9,265.5,95.6
		z M259.2,73.1c-0.6-0.8-1.9-1.5-3.4-1.5c-1.6,0-2.8,0.7-3.4,1.5c-0.8,1-1.3,2.2-1.3,8.6s0.5,7.5,1.3,8.6c0.6,0.8,1.9,1.6,3.4,1.6
		c1.6,0,2.8-0.7,3.4-1.6c0.8-1,1.3-2.2,1.3-8.6S260,74.2,259.2,73.1z"/>
</g>
<text transform="matrix(1 0 0 1 527.9998 40.0439)"><tspan x="0" y="0" fill="#010101" font-family="'DINPro-Medium'" font-size="46">Aqui el contenido se  </tspan><tspan x="0" y="48.4" fill="#010101" font-family="'DINPro-Medium'" font-size="46">construye con dise</tspan><tspan x="385" y="48.4" fill="#010101" font-family="'DINPro-Medium'" font-size="46" letter-spacing="-1">ñ</tspan><tspan x="409.3" y="48.4" fill="#010101" font-family="'DINPro-Medium'" font-size="46">o</tspan></text>
</svg>
