<?xml version="1.0" encoding="utf-8"?>
<!-- Generator: Adobe Illustrator 18.0.0, SVG Export Plug-In . SVG Version: 6.00 Build 0)  -->
<!DOCTYPE svg PUBLIC "-//W3C//DTD SVG 1.1//EN" "http://www.w3.org/Graphics/SVG/1.1/DTD/svg11.dtd">
<svg version="1.1" id="Layer_1" xmlns="http://www.w3.org/2000/svg" xmlns:xlink="http://www.w3.org/1999/xlink" x="0px" y="0px"
	 viewBox="0 0 1000 1000" enable-background="new 0 0 1000 1000" xml:space="preserve">
<g id="XMLID_26_">
	<rect id="XMLID_31_" y="326.9" fill="#010101" width="170.7" height="32.9"/>
	<rect id="XMLID_30_" y="403.2" fill="#010101" width="170.7" height="32.9"/>
	<rect id="XMLID_29_" y="479.5" fill="#010101" width="170.7" height="35.9"/>
	<rect id="XMLID_28_" y="558.8" fill="#010101" width="170.7" height="32.9"/>
	<rect id="XMLID_27_" y="635.1" fill="#010101" width="170.7" height="32.9"/>
</g>
<g id="XMLID_1_">
	<path id="XMLID_23_" fill="#010101" d="M382.4,501c-14.2,14.2-30.6,21.9-54.4,21.9c-23.8,0-40.2-7.6-54.4-21.9
		c-20.5-20.5-19.7-47.8-19.7-77.1c0-29.3-0.8-56.6,19.7-77.1c14.2-14.2,30.6-21.9,54.4-21.9c23.8,0,40.2,7.7,54.4,21.9
		c20.5,20.5,19.7,47.8,19.7,77.1C402.1,453.1,402.9,480.5,382.4,501z M347.2,376c-3.6-4.6-10.4-8.5-19.1-8.5
		c-8.7,0-15.6,3.8-19.1,8.5c-4.4,5.7-7.1,12.3-7.1,47.8s2.7,41.8,7.1,47.6c3.6,4.7,10.4,8.8,19.1,8.8c8.7,0,15.6-4.1,19.1-8.8
		c4.4-5.7,7.1-12,7.1-47.6S351.6,381.8,347.2,376z"/>
	<path id="XMLID_21_" fill="#010101" d="M505.4,522.8c-22.7,0-39.9-7.6-54.1-21.9c-20.5-20.5-19.7-47.8-19.7-77.1
		c0-29.3-0.8-56.6,19.7-77.1c14.2-14.2,31.4-21.9,54.1-21.9c36.9,0,66.7,20.5,73.8,63.4h-48.7c-3-10.9-9-20.8-24.9-20.8
		c-8.7,0-15.3,3.6-18.9,8.2c-4.4,5.7-7.4,12.6-7.4,48.1s3,42.4,7.4,48.1c3.6,4.7,10.1,8.2,18.9,8.2c15.9,0,21.9-9.8,24.9-20.8h48.7
		C572.1,502.3,542.3,522.8,505.4,522.8z"/>
	<path id="XMLID_19_" fill="#010101" d="M707.3,521.2v-77.1h-50.8v77.1h-47.8V326.5h47.8v74.9h50.8v-74.9h47.8v194.6H707.3z"/>
	<path id="XMLID_16_" fill="#010101" d="M913.1,501c-14.2,14.2-30.6,21.9-54.4,21.9c-23.8,0-40.2-7.6-54.4-21.9
		c-20.5-20.5-19.7-47.8-19.7-77.1c0-29.3-0.8-56.6,19.7-77.1c14.2-14.2,30.6-21.9,54.4-21.9c23.8,0,40.2,7.7,54.4,21.9
		c20.5,20.5,19.7,47.8,19.7,77.1C932.8,453.1,933.6,480.5,913.1,501z M877.8,376c-3.6-4.6-10.4-8.5-19.1-8.5
		c-8.8,0-15.6,3.8-19.1,8.5c-4.4,5.7-7.1,12.3-7.1,47.8s2.7,41.8,7.1,47.6c3.6,4.7,10.4,8.8,19.1,8.8c8.7,0,15.6-4.1,19.1-8.8
		c4.4-5.7,7.1-12,7.1-47.6S882.2,381.8,877.8,376z"/>
	<path id="XMLID_14_" fill="#010101" d="M294.3,670c-18.6,0-33.8-3.4-46-16l19.1-19.1c6.3,6.3,17.4,8.5,27.1,8.5
		c11.8,0,17.4-3.9,17.4-10.9c0-2.9-0.7-5.3-2.4-7.2c-1.5-1.5-4.1-2.7-8-3.2l-14.7-2c-10.7-1.5-18.9-5.1-24.4-10.7
		c-5.6-5.8-8.4-14-8.4-24.4c0-22.2,16.7-38.4,44.3-38.4c17.4,0,30.5,4.1,40.9,14.5l-18.8,18.8c-7.7-7.7-17.7-7.2-23-7.2
		c-10.4,0-14.7,6-14.7,11.3c0,1.5,0.5,3.8,2.4,5.6c1.5,1.5,4.1,3.1,8.4,3.6l14.7,2.1c10.9,1.5,18.8,4.9,23.9,10.1
		c6.5,6.3,9,15.3,9,26.6C341.2,656.5,319.8,670,294.3,670z"/>
	<path id="XMLID_12_" fill="#010101" d="M430.5,574.1v94.8h-29.8v-94.8h-29.8v-26.6h89.5v26.6H430.5z"/>
	<path id="XMLID_10_" fill="#010101" d="M541.1,670c-25.2,0-45.9-17.1-45.9-43.7v-78.8h29.8v78.1c0,11.3,6.1,17.7,16,17.7
		c9.9,0,16.4-6.5,16.4-17.7v-78.1h29.8v78.8C587.3,652.9,566.4,670,541.1,670z"/>
	<path id="XMLID_7_" fill="#010101" d="M711,657c-8.4,8.4-20.1,11.9-32.7,11.9h-45V547.5h45c12.6,0,24.4,3.6,32.7,11.9
		c14.2,14.2,12.6,29.7,12.6,48.8C723.6,627.3,725.2,642.9,711,657z M690.5,581c-2.7-4.1-6.8-6.8-14.3-6.8h-13.1v68.2h13.1
		c7.5,0,11.6-2.7,14.3-6.8c2.4-3.4,3.2-6.6,3.2-27.3C693.8,587.8,692.9,584.4,690.5,581z"/>
	<path id="XMLID_5_" fill="#010101" d="M767,668.9V547.5h29.8v121.4H767z"/>
	<path id="XMLID_2_" fill="#010101" d="M920.3,656.3c-8.9,8.9-19.1,13.6-33.9,13.6c-14.8,0-25.1-4.8-33.9-13.6
		c-12.8-12.8-12.3-29.8-12.3-48.1c0-18.2-0.5-35.3,12.3-48.1c8.9-8.9,19.1-13.6,33.9-13.6c14.8,0,25.1,4.8,33.9,13.6
		c12.8,12.8,12.3,29.8,12.3,48.1C932.6,626.5,933.1,643.5,920.3,656.3z M898.3,578.4c-2.2-2.9-6.5-5.3-11.9-5.3
		c-5.5,0-9.7,2.4-11.9,5.3c-2.7,3.6-4.4,7.7-4.4,29.8c0,22.2,1.7,26.1,4.4,29.7c2.2,2.9,6.5,5.4,11.9,5.4c5.5,0,9.7-2.6,11.9-5.4
		c2.7-3.6,4.4-7.5,4.4-29.7C902.8,586.1,901.1,582,898.3,578.4z"/>
</g>
</svg>
