<?xml version="1.0" encoding="utf-8"?>
<!-- Generator: Adobe Illustrator 18.0.0, SVG Export Plug-In . SVG Version: 6.00 Build 0)  -->
<!DOCTYPE svg PUBLIC "-//W3C//DTD SVG 1.1//EN" "http://www.w3.org/Graphics/SVG/1.1/DTD/svg11.dtd">
<svg version="1.1" xmlns="http://www.w3.org/2000/svg" xmlns:xlink="http://www.w3.org/1999/xlink" x="0px" y="0px"
	 viewBox="0 0 112.6 100.6" enable-background="new 0 0 112.6 100.6" xml:space="preserve">
<g id="Layer_1" display="none">
	<g display="inline">
		
			<polyline fill="none" stroke="#010101" stroke-width="2.0786" stroke-linecap="round" stroke-linejoin="round" stroke-miterlimit="10" points="
			30.1,32.2 30.1,68.6 84.6,68.6 84.6,32.2 57.4,59.5 34.6,36.8 34.6,32.2 79.8,32.2 		"/>
		
			<line fill="none" stroke="#010101" stroke-width="2.0786" stroke-linecap="round" stroke-linejoin="round" stroke-miterlimit="10" x1="34.6" y1="45.9" x2="34.6" y2="64"/>
		
			<line fill="none" stroke="#010101" stroke-width="2.0786" stroke-linecap="round" stroke-linejoin="round" stroke-miterlimit="10" x1="39.2" y1="64" x2="39.2" y2="59.5"/>
		
			<line fill="none" stroke="#010101" stroke-width="2.0786" stroke-linecap="round" stroke-linejoin="round" stroke-miterlimit="10" x1="75.1" y1="36.8" x2="70.6" y2="41.3"/>
	</g>
</g>
<g id="Layer_2">
	<g>
		
			<polyline fill="none" stroke="#010101" stroke-width="2.0786" stroke-linecap="round" stroke-linejoin="round" stroke-miterlimit="10" points="
			33.5,34.5 33.5,70.9 69.9,70.9 69.9,34.5 33.5,34.5 		"/>
		
			<polyline fill="none" stroke="#010101" stroke-width="2.0786" stroke-linecap="round" stroke-linejoin="round" stroke-miterlimit="10" points="
			33.5,34.5 42.6,25.4 79,25.4 79,61.8 74.9,66.1 		"/>
		
			<line fill="none" stroke="#010101" stroke-width="2.0786" stroke-linecap="round" stroke-linejoin="round" stroke-miterlimit="10" x1="60.4" y1="25.9" x2="52" y2="34.3"/>
		
			<line fill="none" stroke="#010101" stroke-width="2.0786" stroke-linecap="round" stroke-linejoin="round" stroke-miterlimit="10" x1="78.1" y1="26.3" x2="69.9" y2="34.5"/>
		
			<polyline fill="none" stroke="#010101" stroke-width="2.0786" stroke-linecap="round" stroke-linejoin="round" stroke-miterlimit="10" points="
			47.4,47 47.4,52.8 42.9,52.8 51.8,61.7 60.6,52.9 56.5,52.9 56.5,42.7 47.4,42.7 		"/>
	</g>
</g>
</svg>
