<?xml version="1.0" encoding="utf-8"?>
<!-- Generator: Adobe Illustrator 18.0.0, SVG Export Plug-In . SVG Version: 6.00 Build 0)  -->
<!DOCTYPE svg PUBLIC "-//W3C//DTD SVG 1.1//EN" "http://www.w3.org/Graphics/SVG/1.1/DTD/svg11.dtd">
<svg version="1.1" xmlns="http://www.w3.org/2000/svg" xmlns:xlink="http://www.w3.org/1999/xlink" x="0px" y="0px"
	 viewBox="0 0 1000 1000" enable-background="new 0 0 1000 1000" xml:space="preserve">
<g id="Layer_1" display="none">
	<g display="inline">
		
			<polyline fill="none" stroke="#010101" stroke-width="2.0786" stroke-linecap="round" stroke-linejoin="round" stroke-miterlimit="10" points="
			1112.6,32.2 1112.6,68.6 1167.2,68.6 1167.2,32.2 1139.9,59.5 1117.2,36.8 1117.2,32.2 1162.4,32.2 		"/>
		
			<line fill="none" stroke="#010101" stroke-width="2.0786" stroke-linecap="round" stroke-linejoin="round" stroke-miterlimit="10" x1="1117.2" y1="45.9" x2="1117.2" y2="64"/>
		
			<line fill="none" stroke="#010101" stroke-width="2.0786" stroke-linecap="round" stroke-linejoin="round" stroke-miterlimit="10" x1="1121.7" y1="64" x2="1121.7" y2="59.5"/>
		
			<line fill="none" stroke="#010101" stroke-width="2.0786" stroke-linecap="round" stroke-linejoin="round" stroke-miterlimit="10" x1="1157.7" y1="36.8" x2="1153.1" y2="41.3"/>
	</g>
</g>
<g id="Layer_2" display="none">
	<g display="inline">
		
			<polyline fill="none" stroke="#010101" stroke-width="2.0786" stroke-linecap="round" stroke-linejoin="round" stroke-miterlimit="10" points="
			1116.1,34.5 1116.1,70.9 1152.5,70.9 1152.5,34.5 1116.1,34.5 		"/>
		
			<polyline fill="none" stroke="#010101" stroke-width="2.0786" stroke-linecap="round" stroke-linejoin="round" stroke-miterlimit="10" points="
			1116.1,34.5 1125.2,25.4 1161.6,25.4 1161.6,61.8 1157.4,66.1 		"/>
		
			<line fill="none" stroke="#010101" stroke-width="2.0786" stroke-linecap="round" stroke-linejoin="round" stroke-miterlimit="10" x1="1142.9" y1="25.9" x2="1134.5" y2="34.3"/>
		
			<line fill="none" stroke="#010101" stroke-width="2.0786" stroke-linecap="round" stroke-linejoin="round" stroke-miterlimit="10" x1="1160.7" y1="26.3" x2="1152.5" y2="34.5"/>
		
			<polyline fill="none" stroke="#010101" stroke-width="2.0786" stroke-linecap="round" stroke-linejoin="round" stroke-miterlimit="10" points="
			1130,47 1130,52.8 1125.4,52.8 1134.3,61.7 1143.1,52.9 1139,52.9 1139,42.7 1130,42.7 		"/>
	</g>
</g>
<g id="Layer_3" display="none">
	<g display="inline">
		
			<path fill="none" stroke="#010101" stroke-width="2.4005" stroke-linecap="round" stroke-linejoin="round" stroke-miterlimit="10" d="
			M1106,65.1l0-36.5l18.5,0c0,0,7.2-0.3,11.9,3c2.4,1.7,3.9,4.9,4,8.5c0,0,0.6,7.7-4.4,10.2c0,0,5.7,1.6,5,10.1c0,0,0.4,3.9-3.6,7.6
			c-2,1.9-4.9,2.4-9.4,2.4l-22.1,0"/>
		
			<path fill="none" stroke="#010101" stroke-width="2.4005" stroke-linecap="round" stroke-linejoin="round" stroke-miterlimit="10" d="
			M1106,70.3"/>
		
			<path fill="none" stroke="#010101" stroke-width="2.4005" stroke-linecap="round" stroke-linejoin="round" stroke-miterlimit="10" d="
			M1116.5,40.3l0,4.8l10,0c0,0,3.9,0.6,4.3-3.7c0,0,0.7-4.8-4-4.8l-10.3,0"/>
		
			<path fill="none" stroke="#010101" stroke-width="2.4005" stroke-linecap="round" stroke-linejoin="round" stroke-miterlimit="10" d="
			M1116.5,56.1l0,8.1l10,0c0,0,4.3-0.6,4.3-5.8c0,0,0.2-5.8-4-5.8l-10.3,0"/>
		
			<path fill="none" stroke="#010101" stroke-width="2.4005" stroke-linecap="round" stroke-linejoin="round" stroke-miterlimit="10" d="
			M1152.3,68.2c2,1.2,4.6,2.1,8.1,2.1c0,0,5.1,0.4,9.5-2.7c3.3-2.3,3.3-3.3,4-5.7l-8.9,0c0,0-0.8,2.7-4.6,2.7c0,0-6,0.2-6.4-6.2
			l20.5,0c0,0,2.9-17.6-14.1-17.6c0,0-14.3,0-14.4,16.8c0,0,0.2,3.8,2.7,7.3"/>
		
			<path fill="none" stroke="#010101" stroke-width="2.4005" stroke-linecap="round" stroke-linejoin="round" stroke-miterlimit="10" d="
			M1157.4,52.6l10.5,0c0,0-0.1-5.8-7.4-6c0,0-6.2,0.6-6.5,6"/>
		
			<rect x="1152.6" y="28.5" fill="none" stroke="#010101" stroke-width="2.4005" stroke-linecap="round" stroke-linejoin="round" stroke-miterlimit="10" width="15.7" height="5.3"/>
	</g>
</g>
<g id="Layer_4" display="none">
	<g display="inline">
		
			<path fill="none" stroke="#010101" stroke-width="2.4005" stroke-linecap="round" stroke-linejoin="round" stroke-miterlimit="10" d="
			M1159.8,45v20.5c0,3.2-2.6,5.8-5.8,5.8h-30.5c-3.2,0-5.8-2.6-5.8-5.8V35.1c0-3.2,2.6-5.8,5.8-5.8h30.5c3.2,0,5.8,2.6,5.8,5.8v4.8"
			/>
		
			<line fill="none" stroke="#010101" stroke-width="2.4005" stroke-linecap="round" stroke-linejoin="round" stroke-miterlimit="10" x1="1117.8" y1="39.9" x2="1128.3" y2="39.9"/>
		
			<path fill="none" stroke="#010101" stroke-width="2.4005" stroke-linecap="round" stroke-linejoin="round" stroke-miterlimit="10" d="
			M1131.2,42.7c2-2.1,4.8-3.5,7.9-3.5c6,0,10.8,4.8,10.8,10.8c0,6-4.8,10.8-10.8,10.8c-6,0-10.8-4.8-10.8-10.8"/>
		
			<line fill="none" stroke="#010101" stroke-width="2.4005" stroke-linecap="round" stroke-linejoin="round" stroke-miterlimit="10" x1="1149.4" y1="39.9" x2="1159.8" y2="39.9"/>
		
			<line fill="none" stroke="#010101" stroke-width="2.4005" stroke-linecap="round" stroke-linejoin="round" stroke-miterlimit="10" x1="1149.3" y1="34.6" x2="1149.3" y2="29.3"/>
		
			<line fill="none" stroke="#010101" stroke-width="2.4005" stroke-linecap="round" stroke-linejoin="round" stroke-miterlimit="10" x1="1154.6" y1="34.6" x2="1154.6" y2="29.3"/>
	</g>
</g>
<g id="Layer_5" display="none">
	
		<path display="inline" fill="none" stroke="#010101" stroke-width="2.4005" stroke-linecap="round" stroke-linejoin="round" stroke-miterlimit="10" d="
		M1131.7,71.1c0,0,4,8.4,10.9,0.7c0,0,16.3-21.5,20.4-29.6c0,0,6-14.2-7.3-15c0,0-10.3,0.1-11.9,9.7c0,0-0.1,5.7,5.6,3.8
		c0,0-3.8,15.9-9.4,15.5c0,0-6.2,0.6-5.7-19c0,0,1-19.1-12.6-8.9c0,0-7.9,6.7-10.4,12.6c0,0-2.8,9.6,10.4,1.7l8.4,24.1"/>
</g>
<g id="Layer_6">
	<g>
		<rect x="-5.4" y="-56.1" fill="#FED208" width="19.3" height="19.3"/>
		<path fill="#FED208" d="M467.8-38.9c-1.2,1.2-3.2,1.2-4.5,0c-0.6-0.6-0.9-1.4-0.9-2.2c0-0.8,0.3-1.6,0.9-2.2l3-3l-3-3
			c-0.6-0.6-0.9-1.4-0.9-2.2c0-0.8,0.3-1.6,0.9-2.2c1.2-1.2,3.2-1.2,4.5,0l3,3l3-3c1.2-1.2,3.2-1.2,4.5,0c1.2,1.2,1.2,3.2,0,4.5
			l-3,3l3,3c1.2,1.2,1.2,3.2,0,4.5c-1.2,1.2-3.2,1.2-4.5,0l-3-3L467.8-38.9z"/>
		<path fill="#FED208" d="M227.1-38.4c-1.3-1.3-0.7-3,0-4.7l1.4-3.2l-1.4-3.2c-0.9-1.7-1.3-3.4,0-4.7c1.3-1.3,2.9-0.9,4.7,0L235-53
			l3.2-1.4c1.8-0.9,3.4-1.3,4.7,0c1.3,1.3,0.9,3,0,4.7l-1.4,3.2l1.4,3.2c0.7,1.7,1.3,3.4,0,4.7c-1.3,1.3-3.1,0.7-4.7,0l-3.2-1.4
			l-3.2,1.4C230.2-37.7,228.4-37.1,227.1-38.4z"/>
		<circle fill="#FED208" cx="1138.5" cy="-46.4" r="4.3"/>
		<path fill="#FED208" d="M916.7-42.1C916.7-42,916.7-42,916.7-42.1c0.6,0.6,1.4,0.9,2.2,0.9c1.7,0,3.1-1.4,3.1-3.1
			c0-0.8-0.3-1.6-0.8-2.1c0,0,0,0-0.1-0.1c0,0,0,0,0.1-0.1c0.5-0.6,0.8-1.3,0.8-2.1c0-1.7-1.4-3.1-3.1-3.1c-0.8,0-1.6,0.3-2.1,0.8
			c0,0,0,0-0.1,0.1c0,0,0,0-0.1-0.1c-0.6-0.5-1.3-0.8-2.1-0.8c-1.7,0-3.1,1.4-3.1,3.1c0,0.8,0.3,1.6,0.8,2.1c0,0,0,0,0.1,0.1
			c0,0,0,0-0.1,0.1c-0.5,0.6-0.8,1.3-0.8,2.1c0,1.7,1.4,3.1,3.1,3.1C915.3-41.2,916-41.5,916.7-42.1C916.6-42,916.6-42,916.7-42.1z
			 M916.6-46.4C916.6-46.4,916.7-46.4,916.6-46.4C916.7-46.4,916.7-46.4,916.6-46.4C916.7-46.4,916.7-46.4,916.6-46.4
			C916.7-46.4,916.6-46.4,916.6-46.4z"/>
		<path fill="#FED208" d="M688.4-39.6c-1.7,0-3.1-1.4-3.1-3.1c0-0.9,0.3-1.6,0.9-2.2l0,0l1.5-1.5c0,0,0,0,0-0.1c0,0,0,0,0-0.1
			l-1.2-1.2l0,0c-0.8-0.6-1.3-1.5-1.3-2.5c0-1.7,1.4-3.1,3.1-3.1c1,0,2,0.5,2.5,1.3l0,0l1.2,1.2l0,0c0,0,0.1,0,0.1,0c0,0,0,0,0.1,0
			l1.4-1.4c0.6-0.6,1.4-1,2.3-1c1.7,0,3.1,1.4,3.1,3.1c0,0.9-0.4,1.7-1,2.3l-1.4,1.4c0,0,0,0,0,0.1c0,0,0,0.1,0,0.1l0,0l1.5,1.5
			c0.6,0.6,0.9,1.3,0.9,2.2c0,1.7-1.4,3.1-3.1,3.1c-0.9,0-1.6-0.3-2.2-0.9l-1.5-1.5c0,0,0,0-0.1,0c0,0,0,0-0.1,0l-1.6,1.6
			C690-39.9,689.2-39.6,688.4-39.6z"/>
	</g>
	<text transform="matrix(1 0 0 1 13.937 441.159)"><tspan x="0" y="0" fill="#010101" font-family="'DINPro-Medium'" font-size="103.7763">Aqui el contenido se  </tspan><tspan x="0" y="109.3" fill="#010101" font-family="'DINPro-Medium'" font-size="103.7763">construye con diseño</tspan></text>
</g>
</svg>
