<?xml version="1.0" encoding="utf-8"?>
<!-- Generator: Adobe Illustrator 18.0.0, SVG Export Plug-In . SVG Version: 6.00 Build 0)  -->
<!DOCTYPE svg PUBLIC "-//W3C//DTD SVG 1.1//EN" "http://www.w3.org/Graphics/SVG/1.1/DTD/svg11.dtd">
<svg version="1.1" id="Layer_1" xmlns="http://www.w3.org/2000/svg" xmlns:xlink="http://www.w3.org/1999/xlink" x="0px" y="0px"
	 viewBox="0 0 431 93.2" enable-background="new 0 0 431 93.2" xml:space="preserve">
<g id="XMLID_26_">
	<rect id="XMLID_31_" x="-528" y="-5.8" fill="#010101" width="49.2" height="9.5"/>
	<rect id="XMLID_30_" x="-528" y="16.3" fill="#010101" width="49.2" height="9.5"/>
	<rect id="XMLID_29_" x="-528" y="38.3" fill="#010101" width="49.2" height="10.4"/>
	<rect id="XMLID_28_" x="-528" y="61.2" fill="#010101" width="49.2" height="9.5"/>
	<rect id="XMLID_27_" x="-528" y="83.2" fill="#010101" width="49.2" height="9.5"/>
</g>
<g id="XMLID_1_">
	<path id="XMLID_23_" fill="#010101" d="M-417.7,44.5c-4.1,4.1-8.8,6.3-15.7,6.3c-6.9,0-11.6-2.2-15.7-6.3
		c-5.9-5.9-5.7-13.8-5.7-22.2c0-8.4-0.2-16.3,5.7-22.2c4.1-4.1,8.8-6.3,15.7-6.3c6.9,0,11.6,2.2,15.7,6.3c5.9,5.9,5.7,13.8,5.7,22.2
		C-412,30.7-411.7,38.5-417.7,44.5z M-427.8,8.4c-1-1.3-3-2.4-5.5-2.4c-2.5,0-4.5,1.1-5.5,2.4c-1.3,1.7-2.1,3.5-2.1,13.8
		s0.8,12.1,2.1,13.7c1,1.3,3,2.5,5.5,2.5c2.5,0,4.5-1.2,5.5-2.5c1.3-1.7,2-3.5,2-13.7S-426.6,10.1-427.8,8.4z"/>
	<path id="XMLID_21_" fill="#010101" d="M-382.2,50.8c-6.5,0-11.5-2.2-15.6-6.3c-5.9-5.9-5.7-13.8-5.7-22.2c0-8.4-0.2-16.3,5.7-22.2
		c4.1-4.1,9.1-6.3,15.6-6.3c10.6,0,19.2,5.9,21.3,18.3h-14c-0.9-3.2-2.6-6-7.2-6c-2.5,0-4.4,1-5.4,2.4c-1.3,1.7-2.1,3.6-2.1,13.9
		s0.9,12.2,2.1,13.9c1,1.3,2.9,2.4,5.4,2.4c4.6,0,6.3-2.8,7.2-6h14C-362.9,44.8-371.5,50.8-382.2,50.8z"/>
	<path id="XMLID_19_" fill="#010101" d="M-323.9,50.3V28h-14.7v22.2h-13.8V-5.9h13.8v21.6h14.7V-5.9h13.8v56.2H-323.9z"/>
	<path id="XMLID_16_" fill="#010101" d="M-264.5,44.5c-4.1,4.1-8.8,6.3-15.7,6.3c-6.9,0-11.6-2.2-15.7-6.3
		c-5.9-5.9-5.7-13.8-5.7-22.2c0-8.4-0.2-16.3,5.7-22.2c4.1-4.1,8.8-6.3,15.7-6.3c6.9,0,11.6,2.2,15.7,6.3c5.9,5.9,5.7,13.8,5.7,22.2
		C-258.9,30.7-258.6,38.5-264.5,44.5z M-274.7,8.4c-1-1.3-3-2.4-5.5-2.4c-2.5,0-4.5,1.1-5.5,2.4c-1.3,1.7-2,3.5-2,13.8
		s0.8,12.1,2,13.7c1,1.3,3,2.5,5.5,2.5c2.5,0,4.5-1.2,5.5-2.5c1.3-1.7,2.1-3.5,2.1-13.7S-273.5,10.1-274.7,8.4z"/>
	<path id="XMLID_14_" fill="#010101" d="M-443.1,93.2c-5.4,0-9.7-1-13.3-4.6l5.5-5.5c1.8,1.8,5,2.5,7.8,2.5c3.4,0,5-1.1,5-3.1
		c0-0.8-0.2-1.5-0.7-2.1c-0.4-0.4-1.2-0.8-2.3-0.9l-4.2-0.6c-3.1-0.4-5.5-1.5-7-3.1c-1.6-1.7-2.4-4-2.4-7c0-6.4,4.8-11.1,12.8-11.1
		c5,0,8.8,1.2,11.8,4.2l-5.4,5.4c-2.2-2.2-5.1-2.1-6.6-2.1c-3,0-4.2,1.7-4.2,3.2c0,0.4,0.1,1.1,0.7,1.6c0.4,0.4,1.2,0.9,2.4,1
		l4.2,0.6c3.1,0.4,5.4,1.4,6.9,2.9c1.9,1.8,2.6,4.4,2.6,7.7C-429.6,89.3-435.7,93.2-443.1,93.2z"/>
	<path id="XMLID_12_" fill="#010101" d="M-403.8,65.6v27.4h-8.6V65.6h-8.6v-7.7h25.8v7.7H-403.8z"/>
	<path id="XMLID_10_" fill="#010101" d="M-371.9,93.2c-7.3,0-13.2-4.9-13.2-12.6V57.9h8.6v22.5c0,3.2,1.8,5.1,4.6,5.1
		s4.7-1.9,4.7-5.1V57.9h8.6v22.7C-358.5,88.3-364.6,93.2-371.9,93.2z"/>
	<path id="XMLID_7_" fill="#010101" d="M-322.9,89.5c-2.4,2.4-5.8,3.4-9.4,3.4h-13v-35h13c3.6,0,7,1,9.4,3.4
		c4.1,4.1,3.6,8.6,3.6,14.1C-319.2,80.9-318.8,85.4-322.9,89.5z M-328.8,67.5c-0.8-1.2-2-2-4.1-2h-3.8v19.7h3.8c2.2,0,3.3-0.8,4.1-2
		c0.7-1,0.9-1.9,0.9-7.9C-327.8,69.5-328.1,68.5-328.8,67.5z"/>
	<path id="XMLID_5_" fill="#010101" d="M-306.7,92.9v-35h8.6v35H-306.7z"/>
	<path id="XMLID_2_" fill="#010101" d="M-262.5,89.3c-2.6,2.6-5.5,3.9-9.8,3.9c-4.3,0-7.2-1.4-9.8-3.9c-3.7-3.7-3.5-8.6-3.5-13.9
		c0-5.3-0.1-10.2,3.5-13.9c2.6-2.6,5.5-3.9,9.8-3.9c4.3,0,7.2,1.4,9.8,3.9c3.7,3.7,3.5,8.6,3.5,13.9
		C-258.9,80.7-258.8,85.6-262.5,89.3z M-268.8,66.8c-0.6-0.8-1.9-1.5-3.4-1.5c-1.6,0-2.8,0.7-3.4,1.5c-0.8,1-1.3,2.2-1.3,8.6
		c0,6.4,0.5,7.5,1.3,8.6c0.6,0.8,1.9,1.6,3.4,1.6c1.6,0,2.8-0.7,3.4-1.6c0.8-1,1.3-2.2,1.3-8.6C-267.5,69-268,67.8-268.8,66.8z"/>
</g>
<text transform="matrix(1 0 0 1 -2.441406e-04 33.7041)"><tspan x="0" y="0" fill="#010101" font-family="'DINPro-Medium'" font-size="46">Aqui el contenido se  </tspan><tspan x="0" y="48.4" fill="#010101" font-family="'DINPro-Medium'" font-size="46">construye con dise</tspan><tspan x="385" y="48.4" fill="#010101" font-family="'DINPro-Medium'" font-size="46" letter-spacing="-1">ñ</tspan><tspan x="409.3" y="48.4" fill="#010101" font-family="'DINPro-Medium'" font-size="46">o</tspan></text>
</svg>
